# xmcd CD database file
#
# Track frame offsets:
#	150
#	10995
#	22864
#	35545
#	47395
#	60385
#	75358
#	89942
#	103086
#	115058
#	126904
#	141117
#	151342
#	164965
#	177022
#	189830
#
# Disc length: 2690 seconds
#
# Revision: 0
# Processed by: cddbd v1.5.1PL0 Copyright (c) Steve Scherf et al.
# Submitted via: CDex 1.51
#
DISCID=c70a8010
DTITLE=Dinah Washington - Blues For A Day
DYEAR=1900
DGENRE=Jazz
TTITLE0=Go Pretty Daddy
TTITLE1=I Ain't Going To Cry No More
TTITLE2=Wise Woman Blues
TTITLE3=New Blowtop Blues
TTITLE4=Blues For A Day
TTITLE5=Feel Like I Wanna Cry
TTITLE6=Am I Blue
TTITLE7=Rich Man's Blues
TTITLE8=Since I Fell For You
TTITLE9=Surprise Party
TTITLE10=Long John Blues
TTITLE11=Never, Never
TTITLE12=Please Send Me Someone To Love
TTITLE13=Pacific Coast Blues
TTITLE14=Trouble In My Mind
TTITLE15=If You Don't Think I'm Leavin'
EXTD=
EXTT0=
EXTT1=
EXTT2=
EXTT3=
EXTT4=
EXTT5=
EXTT6=
EXTT7=
EXTT8=
EXTT9=
EXTT10=
EXTT11=
EXTT12=
EXTT13=
EXTT14=
EXTT15=
PLAYORDER=
